<svg width="311" height="89" viewBox="0 0 311 89" fill="none" xmlns="http://www.w3.org/2000/svg">
<path d="M19.3775 46.6606H29.9285C31.8519 46.6606 33.1982 46.1959 33.9676 45.2665C34.7506 44.3372 35.1422 43.2916 35.1422 42.1299V11.5626C35.1422 10.4556 34.7506 9.43051 33.9676 8.48746C33.1982 7.55807 31.8519 7.09337 29.9285 7.09337H11.7527L11.6703 50.6173C11.6703 51.5877 11.2307 52.3599 10.3514 52.934C9.47218 53.5217 8.38687 53.8155 7.09547 53.8155C4.03183 53.8155 2.5 52.7494 2.5 50.6173V4.34623C2.5 2.74714 2.96711 1.68106 3.90132 1.14803C4.89047 0.615004 6.05823 0.348509 7.40458 0.348509H31.8862C33.2326 0.348509 34.627 0.594543 36.0695 1.08657C37.5258 1.5786 38.9271 2.20044 40.2735 2.95215H40.191C41.5374 3.79953 42.5746 4.91343 43.3027 6.29384C44.0309 7.61958 44.395 9.17768 44.395 10.9681V42.6629C44.395 46.2711 42.9936 48.9636 40.191 50.7403C38.8447 51.5877 37.4434 52.2574 35.9871 52.7495C34.5995 53.1868 33.2326 53.4055 31.8862 53.4055H18.8211C17.9418 53.4055 17.2412 53.098 16.7191 52.4829C16.252 51.8542 16.0185 51.0273 16.0185 50.0023C16.0185 47.7745 17.1382 46.6606 19.3775 46.6606ZM93.6468 51.7449L76.5632 6.88836L59.5414 51.7449V51.6834C59.2254 52.3394 58.7858 52.8929 58.2225 53.344C57.7005 53.7403 57.0548 53.9385 56.2854 53.9385C55.8596 53.9385 55.4405 53.918 55.0284 53.877C54.6712 53.795 54.2865 53.7062 53.8744 53.6105H53.9362C50.9962 52.8041 49.9109 51.3827 50.6802 49.3463L68.4026 3.09564C68.6637 2.37127 69.1033 1.76994 69.7215 1.29158C70.3947 0.799555 71.1709 0.505695 72.0501 0.410023C72.9294 0.287016 73.7812 0.198168 74.6055 0.143498C75.4435 0.0614934 76.0961 0.0204711 76.5632 0.0204711C77.0303 0.0204711 77.676 0.0614934 78.5003 0.143498C79.3246 0.198168 80.1763 0.266505 81.0556 0.348509C81.7837 0.444182 82.4844 0.779014 83.1576 1.35305C83.8857 1.92708 84.4284 2.50794 84.7856 3.09564C87.6981 10.7357 90.6243 18.451 93.5643 26.2415C96.573 33.9909 99.5267 41.6925 102.426 49.3463C103.154 51.3827 102.068 52.8041 99.1695 53.6105C98.7574 53.7062 98.3659 53.795 97.9949 53.877C97.6927 53.918 97.3355 53.9385 96.9233 53.9385C96.1952 53.9385 95.522 53.7403 94.9038 53.344C94.3268 52.8929 93.9078 52.3394 93.6468 51.6834V51.7449ZM82.3951 37.3121C82.3951 38.7472 81.7975 39.9704 80.6022 40.9818C79.462 41.9658 78.0606 42.4578 76.3983 42.4578C74.7497 42.4578 73.3553 41.9658 72.215 40.9818C71.0747 39.9704 70.5046 38.7472 70.5046 37.3121C70.5046 35.8907 71.0747 34.6948 72.215 33.7244C73.3553 32.6993 74.7497 32.1868 76.3983 32.1868C78.0606 32.1868 79.462 32.6993 80.6022 33.7244C81.7975 34.6948 82.3951 35.8907 82.3951 37.3121ZM138.88 3.21867V42.6629C138.88 46.2711 137.479 48.9636 134.676 50.7403C133.33 51.5877 131.929 52.2506 130.472 52.7289C129.085 53.18 127.718 53.4055 126.371 53.4055H118.911C117.565 53.4055 116.164 53.18 114.708 52.7289C113.306 52.2506 111.932 51.5877 110.586 50.7403C107.838 49.0046 106.465 46.3121 106.465 42.6629V38.2551C106.465 36.164 107.969 35.1185 110.978 35.1185C114.082 35.1185 115.635 36.164 115.635 38.2551V42.1299C115.635 43.2779 116.026 44.3235 116.81 45.2665C117.579 46.1959 118.925 46.6606 120.849 46.6606H124.414C126.337 46.6606 127.683 46.1959 128.453 45.2665C129.236 44.3235 129.627 43.2779 129.627 42.1299V3.21867C129.627 1.07288 131.152 0 134.202 0C137.321 0 138.88 1.07288 138.88 3.21867ZM160.951 3.21867V50.5353C160.951 52.6674 159.391 53.7335 156.273 53.7335C153.223 53.7335 151.698 52.6674 151.698 50.5353V3.21867C151.698 1.07288 153.223 0 156.273 0C159.391 0 160.951 1.07288 160.951 3.21867ZM210.058 52.5444L195.365 31.3872H189.389C188.496 31.3872 187.795 31.0934 187.287 30.5057C186.82 29.8907 186.586 29.0706 186.586 28.0456C186.586 25.7768 187.672 24.6424 189.842 24.6424H198.93C200.854 24.6424 202.2 24.1709 202.969 23.2278C203.752 22.2984 204.144 21.2802 204.144 20.1731V11.5626C204.144 10.4419 203.752 9.41684 202.969 8.48746C202.2 7.55807 200.854 7.09337 198.93 7.09337H182.547V50.5968C182.547 52.7426 181.015 53.8155 177.952 53.8155C174.902 53.8155 173.377 52.7426 173.377 50.5968V4.34623C173.377 2.74714 173.844 1.68106 174.778 1.14803C175.754 0.615004 176.915 0.348509 178.261 0.348509H200.888C202.234 0.348509 203.629 0.594543 205.071 1.08657C206.527 1.56493 207.929 2.18677 209.275 2.95215H209.193C210.539 3.79953 211.576 4.91343 212.304 6.29384C213.033 7.61958 213.397 9.17083 213.397 10.9476V20.7062C213.397 24.3007 211.995 26.9932 209.193 28.7836C208.629 29.1389 208.011 29.4738 207.338 29.7882C206.706 30.0889 206.054 30.3964 205.38 30.7107L217.827 48.3417C217.978 48.5604 218.13 48.8474 218.281 49.2028C218.445 49.5581 218.528 49.8451 218.528 50.0638C218.528 51.1299 217.642 52.1549 215.87 53.139V53.0774C214.688 53.6925 213.678 54 212.84 54C211.659 54 210.704 53.4875 209.976 52.4624L210.058 52.5444ZM263.287 51.7449L246.183 6.90888L229.161 51.7449V51.6834C228.859 52.3531 228.419 52.9066 227.842 53.344C227.334 53.754 226.688 53.959 225.905 53.959C225.493 53.959 225.081 53.9385 224.669 53.8975C224.298 53.8018 223.906 53.713 223.494 53.631H223.577C220.623 52.8246 219.531 51.3964 220.3 49.3463L238.023 3.09564C238.284 2.38494 238.723 1.78361 239.341 1.29158C240.015 0.799555 240.791 0.512499 241.67 0.430494C242.549 0.29382 243.408 0.205021 244.246 0.164019C245.07 0.0683472 245.716 0.0204711 246.183 0.0204711C246.65 0.0204711 247.296 0.0683472 248.12 0.164019C248.958 0.205021 249.817 0.273359 250.696 0.369031C251.424 0.451035 252.125 0.779014 252.798 1.35305C253.512 1.94075 254.055 2.52161 254.426 3.09564C257.325 10.7494 260.251 18.4715 263.205 26.2619C266.2 33.9977 269.154 41.6925 272.066 49.3463C272.78 51.3964 271.688 52.8246 268.789 53.631C268.377 53.713 267.993 53.8018 267.635 53.8975C267.319 53.9385 266.955 53.959 266.543 53.959C265.815 53.959 265.142 53.754 264.524 53.344C263.947 52.9066 263.535 52.3531 263.287 51.6834V51.7449ZM252.015 37.3326C252.015 38.754 251.417 39.9772 250.222 41.0023C249.082 41.9864 247.687 42.4784 246.039 42.4784C244.377 42.4784 242.975 41.9864 241.835 41.0023C240.695 39.9772 240.125 38.754 240.125 37.3326C240.125 35.9111 240.695 34.7084 241.835 33.7244C242.975 32.6993 244.377 32.1868 246.039 32.1868C247.687 32.1868 249.082 32.6993 250.222 33.7244C251.417 34.7084 252.015 35.9111 252.015 37.3326ZM308.5 3.21867V42.6629C308.5 46.2711 307.099 48.9636 304.296 50.7403C302.95 51.5877 301.555 52.2574 300.113 52.7495C298.711 53.1868 297.338 53.4055 295.991 53.4055H288.531C287.185 53.4055 285.784 53.1868 284.327 52.7495C282.94 52.2574 281.573 51.5877 280.227 50.7403C277.479 49.0046 276.105 46.3121 276.105 42.6629V38.2551C276.105 36.164 277.603 35.1185 280.598 35.1185C283.716 35.1185 285.275 36.164 285.275 38.2551V42.1299C285.275 43.2916 285.66 44.3372 286.429 45.2665C287.213 46.2096 288.559 46.6811 290.468 46.6811H294.054C295.964 46.6811 297.31 46.2096 298.093 45.2665C298.863 44.3372 299.247 43.2916 299.247 42.1299V3.21867C299.247 1.08655 300.779 0.0204711 303.843 0.0204711C306.948 0.0204711 308.5 1.08655 308.5 3.21867Z" fill="#DAAF5A"/>
<path d="M5.45755 80.898L5.66326 88.5918H0.5L0.787994 81.3469L0.5 64.3469H5.76611L5.45755 80.898ZM31.8703 81.1021L32.0554 88.5918H26.4808L16.5451 72.1633H16.1954V80.2041L16.36 88.5918H11.6288L11.9373 81.449L11.7316 64.3674H17.2651L27.2007 80.7551H27.5504L27.3447 64.551L32.1583 64.2653L31.8703 81.1021ZM43.1841 68.3673L43.0813 74.9592L46.4754 75L50.6307 74.9184L50.9804 75.2653L50.6307 79.0408L46.064 78.9388L43.0402 78.9796L42.9784 80.898L43.1841 88.5918H38.0209L38.3089 81.3469L38.0209 64.3469H52.5644L52.8729 64.7551L52.5027 68.5714L46.6812 68.3673H43.1841ZM64.7216 64C68.3009 64 71.0231 65.0408 72.8882 67.1225C74.7396 69.1905 75.6652 72.2245 75.6652 76.2245C75.6652 80.2109 74.6573 83.3401 72.6414 85.6122C70.6391 87.8707 67.8484 89 64.2691 89C60.7172 89 58.0156 87.9388 56.1643 85.8163C54.2992 83.6803 53.3666 80.6123 53.3666 76.6123C53.3666 72.6259 54.3677 69.5238 56.37 67.3061C58.3859 65.102 61.1698 64 64.7216 64ZM64.5159 68.1224C62.5 68.1224 61.0326 68.7619 60.1138 70.0408C59.195 71.2789 58.7356 73.4014 58.7356 76.4082C58.7356 79.4286 59.1813 81.6259 60.0727 83C60.9778 84.347 62.4589 85.0204 64.5159 85.0204C66.5867 85.0204 68.061 84.4013 68.9386 83.1632C69.8437 81.8843 70.2963 79.7347 70.2963 76.7143C70.2963 73.6667 69.8437 71.4694 68.9386 70.1224C68.061 68.7891 66.5867 68.1224 64.5159 68.1224ZM95.2485 64.7551L94.94 68.5714L90.3733 68.3265H88.8099L88.6453 80.898L88.851 88.5918H83.729L83.9964 81.3469L83.7906 68.3265H82.2684L77.5989 68.5714L77.2492 68.1224L77.5989 64.3469H94.94L95.2485 64.7551ZM114.112 84.3674L114.4 84.7755L114.05 88.5918H98.6838L98.9924 81.3469L98.6838 64.3469H114.194L114.503 64.7551L114.153 68.5714L108.27 68.3673H103.868L103.765 74.2041L108.023 74.3061L111.972 74.2041L112.281 74.5714L111.931 78.3878L107.611 78.2857L103.703 78.3265L103.662 80.898L103.765 84.5714L108.064 84.6122L114.112 84.3674ZM127.812 64C130.171 64.0408 132.296 64.5442 134.189 65.5102L133.284 69.7959L132.872 69.9388C131.281 68.7959 129.506 68.2245 127.544 68.2245C123.526 68.2245 121.517 70.8571 121.517 76.1224C121.517 81.7959 123.581 84.6463 127.709 84.6735C129.739 84.6735 131.611 84.1224 133.325 83.0204L133.777 83.2653L133.387 87.5919C131.453 88.4626 129.423 88.9184 127.298 88.9592C123.65 88.9592 120.859 87.8979 118.925 85.7755C117.033 83.6667 116.087 80.619 116.087 76.6326C116.087 72.6462 117.101 69.5442 119.131 67.3265C121.161 65.1089 124.054 64 127.812 64ZM157.804 80.898L158.01 88.5918H152.846L153.155 81.3674L153.093 78.551L147.58 78.449L142.602 78.551L142.561 80.898L142.767 88.5918H137.583L137.892 81.3674L137.583 64.3674H142.849L142.664 74.3266L147.868 74.4694L153.052 74.3266L152.846 64.3674H158.112L157.804 80.898ZM179.053 64.3061C181.577 64.3061 183.517 64.9388 184.875 66.2041C186.26 67.483 186.953 69.1905 186.953 71.3265C186.953 73.449 186.548 75.1769 185.739 76.5102C184.957 77.8572 183.805 78.9183 182.283 79.6939C180.802 80.4558 179.047 80.8367 177.017 80.8367H174.59V80.898L174.795 88.5918H169.611L169.92 81.3469L169.611 64.3469L179.053 64.3061ZM181.645 72.1428C181.645 70.7687 181.289 69.7687 180.576 69.1428C179.904 68.4626 178.841 68.1088 177.387 68.0816L174.795 68.2245L174.692 76.9184L178.148 77.1225C180.48 76.4286 181.645 74.7687 181.645 72.1428ZM201.619 88.5918H195.489L188.022 64.3469H193.247L193.803 67.5306L198.472 83.8775H198.822L204.15 67.7755L204.808 64.3469H209.889L201.619 88.5918ZM228.423 64.7551L228.114 68.5918L223.568 68.3265H221.984L221.84 80.898L222.046 88.5918H216.924L217.171 81.3674L216.965 68.3265H215.443L210.794 68.5918L210.424 68.1429L210.794 64.3674H228.114L228.423 64.7551ZM233.401 83.5102C235.06 83.5102 235.89 84.3673 235.89 86.0816C235.89 86.9116 235.636 87.5782 235.129 88.0816C234.649 88.585 234.005 88.8367 233.195 88.8367C232.386 88.8367 231.742 88.619 231.262 88.1837C230.823 87.7211 230.604 87.0817 230.604 86.2653C230.604 85.4626 230.844 84.8095 231.324 84.3061C231.831 83.7755 232.523 83.5102 233.401 83.5102ZM259.649 84.7551L259.3 88.5918H246.073L246.381 81.3469L246.073 64.3469H251.339L251.03 80.898L251.133 84.3674H259.341L259.649 84.7551ZM278.266 64.7347L277.957 68.551L273.391 68.3061H271.827L271.663 80.8775L271.868 88.5714H266.746L267.014 81.3265L266.808 68.3061H265.286L260.616 68.551L260.266 68.1021L260.616 64.3266H277.957L278.266 64.7347ZM291.596 64.1837C295.106 64.1837 297.808 65.1769 299.7 67.1633C301.634 69.0952 302.601 72.0612 302.601 76.0612C302.601 80.0068 301.538 83.1224 299.412 85.4081C297.273 87.6939 294.229 88.8367 290.279 88.8367C287.468 88.8367 284.615 88.7483 281.722 88.5714L282.01 81.3265L281.722 64.3469L291.596 64.1837ZM297.211 76.6939C297.211 73.7415 296.725 71.5986 295.751 70.2653C294.805 68.8911 293.282 68.2041 291.184 68.2041C289.827 68.2041 288.387 68.2857 286.864 68.449L286.679 80.8775L286.761 84.6327C288.531 84.7687 290.005 84.8368 291.184 84.8368C295.202 84.8368 297.211 82.1224 297.211 76.6939ZM308.011 83.4898C309.67 83.4898 310.5 84.3401 310.5 86.0408C310.5 86.8844 310.246 87.5578 309.739 88.0612C309.259 88.5646 308.614 88.8163 307.805 88.8163C306.996 88.8163 306.352 88.5986 305.872 88.1632C305.433 87.6871 305.213 87.0476 305.213 86.2449C305.213 85.4422 305.453 84.7891 305.933 84.2857C306.441 83.7551 307.133 83.4898 308.011 83.4898Z" fill="#E9D288"/>
</svg>
