<svg width="282" height="68" viewBox="0 0 282 68" fill="none" xmlns="http://www.w3.org/2000/svg">
<path d="M15.5538 52.2042H25.2773C27.0498 52.2042 28.2905 51.774 28.9995 50.9135C29.7212 50.0529 30.082 49.0848 30.082 48.0091V19.7061C30.082 18.6811 29.7212 17.732 28.9995 16.8588C28.2905 15.9982 27.0498 15.5679 25.2773 15.5679H8.52704L8.45107 55.8679C8.45107 56.7664 8.04593 57.4814 7.23563 58.0129C6.42534 58.5571 5.42516 58.8292 4.23504 58.8292C1.41169 58.8292 0 57.8421 0 55.8679V13.0243C0 11.5437 0.430476 10.5565 1.29141 10.063C2.20299 9.56945 3.27915 9.32269 4.51991 9.32269H27.0814C28.3222 9.32269 29.6073 9.5505 30.9366 10.0061C32.2787 10.4617 33.5701 11.0374 34.8108 11.7335H34.7349C35.9756 12.5181 36.9315 13.5495 37.6025 14.8276C38.2736 16.0552 38.6091 19.1557 38.6091 19.1557V48.5026C38.6091 51.8436 37.3177 54.3366 34.7349 55.9818C33.4941 56.7664 32.2027 57.3865 30.8607 57.8421C29.5819 58.2471 28.3222 58.4495 27.0814 58.4495H15.041C14.2307 58.4495 13.585 58.1648 13.1039 57.5953C12.6734 57.0132 12.4582 56.2475 12.4582 55.2984C12.4582 53.2356 13.4901 52.2042 15.5538 52.2042ZM83.998 56.9119L68.2543 15.3781L52.5676 56.9119V56.855C52.2764 57.4624 51.8712 57.9749 51.3521 58.3926C50.871 58.7596 50.276 58.943 49.567 58.943C49.1745 58.943 48.7883 58.9241 48.4085 58.8861C48.0793 58.8102 47.7248 58.7279 47.345 58.6393H47.402C44.6926 57.8927 43.6924 56.5766 44.4014 54.691L60.7338 11.8663C60.9744 11.1956 61.3795 10.6388 61.9492 10.1959C62.5696 9.74033 63.2849 9.46824 64.0952 9.37965C64.9055 9.26576 65.6905 9.18349 66.4501 9.13287C67.2225 9.05694 67.8238 9.01895 68.2543 9.01895C68.6848 9.01895 69.2798 9.05694 70.0395 9.13287C70.7991 9.18349 71.5841 9.24676 72.3944 9.32269C73.0654 9.41128 73.7111 9.72131 74.3315 10.2528C75.0025 10.7843 75.5026 11.3222 75.8318 11.8663C78.5159 18.9405 81.2126 26.0843 83.922 33.2977C86.6947 40.4731 89.4168 47.6042 92.0882 54.691C92.7592 56.5766 91.759 57.8927 89.0876 58.6393C88.7078 58.7279 88.347 58.8102 88.0051 58.8861C87.7266 58.9241 87.3974 58.943 87.0176 58.943C86.3465 58.943 85.7262 58.7596 85.1565 58.3926C84.6247 57.9749 84.2385 57.4624 83.998 56.855V56.9119ZM73.6288 43.5482C73.6288 44.877 73.078 46.0096 71.9766 46.9461C70.9257 47.8572 69.6343 48.3128 68.1024 48.3128C66.5831 48.3128 65.298 47.8572 64.2472 46.9461C63.1963 46.0096 62.6709 44.877 62.6709 43.5482C62.6709 42.2321 63.1963 41.1248 64.2472 40.2263C65.298 39.2772 66.5831 38.8026 68.1024 38.8026C69.6343 38.8026 70.9257 39.2772 71.9766 40.2263C73.078 41.1248 73.6288 42.2321 73.6288 43.5482ZM125.684 11.9802V48.5026C125.684 51.8436 124.392 54.3366 121.809 55.9818C120.569 56.7664 119.277 57.3802 117.935 57.8231C116.656 58.2407 115.397 58.4495 114.156 58.4495H107.281C106.04 58.4495 104.749 58.2407 103.407 57.8231C102.116 57.3802 100.849 56.7664 99.6087 55.9818C97.0766 54.3746 95.8105 51.8815 95.8105 48.5026V44.4214C95.8105 42.4852 97.1969 41.5171 99.9696 41.5171C102.831 41.5171 104.262 42.4852 104.262 44.4214V48.0091C104.262 49.0721 104.622 50.0403 105.344 50.9135C106.053 51.774 107.294 52.2042 109.066 52.2042H112.352C114.124 52.2042 115.365 51.774 116.074 50.9135C116.796 50.0403 117.157 49.0721 117.157 48.0091V11.9802C117.157 9.99341 118.562 9 121.373 9C124.247 9 125.684 9.99341 125.684 11.9802ZM146.023 11.9802V55.792C146.023 57.7662 144.586 58.7532 141.712 58.7532C138.901 58.7532 137.496 57.7662 137.496 55.792V11.9802C137.496 9.99341 138.901 9 141.712 9C144.586 9 146.023 9.99341 146.023 11.9802ZM191.279 57.6523L177.738 38.0622H172.231C171.408 38.0622 170.762 37.7902 170.294 37.246C169.863 36.6766 169.648 35.9173 169.648 34.9681C169.648 32.8674 170.648 31.817 172.649 31.817H181.024C182.796 31.817 184.037 31.3804 184.746 30.5072C185.468 29.6467 185.829 28.7039 185.829 27.6788V19.7061C185.829 18.6684 185.468 17.7193 184.746 16.8588C184.037 15.9982 182.796 15.5679 181.024 15.5679H165.926V55.8489C165.926 57.8358 164.514 58.8292 161.691 58.8292C158.88 58.8292 157.475 57.8358 157.475 55.8489V13.0243C157.475 11.5437 157.905 10.5565 158.766 10.063C159.665 9.56945 160.735 9.32269 161.976 9.32269H182.828C184.069 9.32269 185.354 9.5505 186.683 10.0061C188.025 10.449 189.317 11.0248 190.557 11.7335H190.482C191.722 12.5181 192.678 13.5495 193.349 14.8276C194.02 16.0552 194.356 17.4915 194.356 19.1367V28.1724C194.356 31.5006 193.064 33.9937 190.482 35.6515C189.962 35.9805 189.393 36.2906 188.772 36.5816C188.19 36.8601 187.589 37.1448 186.968 37.4359L198.439 53.7608C198.578 53.9633 198.717 54.2291 198.857 54.5581C199.009 54.8871 199.085 55.1529 199.085 55.3554C199.085 56.3424 198.268 57.2916 196.635 58.2027V58.1458C195.546 58.7153 194.615 59 193.843 59C192.754 59 191.874 58.5254 191.203 57.5763L191.279 57.6523ZM240.333 56.9119L224.571 15.3971L208.884 56.9119V56.855C208.605 57.4751 208.2 57.9876 207.669 58.3926C207.2 58.7722 206.605 58.962 205.883 58.962C205.504 58.962 205.124 58.943 204.744 58.9051C204.402 58.8165 204.041 58.7342 203.661 58.6583H203.737C201.015 57.9117 200.009 56.5892 200.718 54.691L217.05 11.8663C217.291 11.2083 217.696 10.6515 218.266 10.1959C218.886 9.74033 219.601 9.47454 220.412 9.39861C221.222 9.27206 222.013 9.18983 222.786 9.15187C223.545 9.06328 224.14 9.01895 224.571 9.01895C225.001 9.01895 225.596 9.06328 226.356 9.15187C227.128 9.18983 227.919 9.25311 228.73 9.3417C229.401 9.41763 230.047 9.72131 230.667 10.2528C231.325 10.797 231.825 11.3348 232.167 11.8663C234.839 18.9532 237.535 26.1032 240.257 33.3166C243.017 40.4794 245.74 47.6042 248.424 54.691C249.082 56.5892 248.075 57.9117 245.404 58.6583C245.024 58.7342 244.67 58.8165 244.341 58.9051C244.049 58.943 243.714 58.962 243.334 58.962C242.663 58.962 242.043 58.7722 241.473 58.3926C240.941 57.9876 240.561 57.4751 240.333 56.855V56.9119ZM229.945 43.5672C229.945 44.8833 229.394 46.016 228.293 46.9651C227.242 47.8762 225.957 48.3318 224.438 48.3318C222.906 48.3318 221.614 47.8762 220.564 46.9651C219.513 46.016 218.987 44.8833 218.987 43.5672C218.987 42.2511 219.513 41.1374 220.564 40.2263C221.614 39.2772 222.906 38.8026 224.438 38.8026C225.957 38.8026 227.242 39.2772 228.293 40.2263C229.394 41.1374 229.945 42.2511 229.945 43.5672ZM282 11.9802V48.5026C282 51.8436 280.709 54.3366 278.126 55.9818C276.885 56.7664 275.6 57.3865 274.271 57.8421C272.979 58.2471 271.713 58.4495 270.472 58.4495H263.598C262.357 58.4495 261.065 58.2471 259.723 57.8421C258.445 57.3865 257.185 56.7664 255.944 55.9818C253.412 54.3746 252.146 51.8815 252.146 48.5026V44.4214C252.146 42.4852 253.526 41.5171 256.286 41.5171C259.16 41.5171 260.597 42.4852 260.597 44.4214V48.0091C260.597 49.0848 260.951 50.0529 261.66 50.9135C262.382 51.7867 263.623 52.2232 265.383 52.2232H268.687C270.447 52.2232 271.688 51.7867 272.409 50.9135C273.118 50.0529 273.473 49.0848 273.473 48.0091V11.9802C273.473 10.0061 274.885 9.01895 277.708 9.01895C280.569 9.01895 282 10.0061 282 11.9802Z" fill="#DAAF5A"/>
</svg>
