<svg width="500" height="500" viewBox="0 0 500 500" fill="none" xmlns="http://www.w3.org/2000/svg">
<path opacity="0.7" d="M67.9305 167.09C67.9305 167.09 40.0505 239.09 79.2305 311.59C118.41 384.09 199.11 422.39 263.7 455.14C328.29 487.89 395.361 471.94 427.23 418.3C459.101 364.66 415.39 326.37 415.33 249.88C415.27 173.39 426.78 153.14 385.33 88.5196C343.88 23.8996 242.27 9.58958 165.43 57.5196C88.5905 105.45 67.9305 167.09 67.9305 167.09Z" fill="url(#paint0_linear_194_27)"/>
<path d="M211.58 464.359C88.8001 443.599 106.34 375.859 68.8001 298.619C31.2601 221.379 27.1901 189.769 66.6201 122.409C106.05 55.0493 189.62 16.0593 266.16 70.6093C342.7 125.159 399.45 106.909 445.53 149.609C491.61 192.309 497 252.999 440.65 307.999C384.3 362.999 363 489.999 211.58 464.359Z" fill="url(#paint1_linear_194_27)" fill-opacity="0.9"/>
<path d="M315.61 464.2C315.61 464.2 293.67 459.37 289.51 448.31C285.35 437.25 293.33 409.1 295.06 381.37H204.94C206.67 409.1 214.65 437.24 210.49 448.31C206.33 459.38 184.39 464.2 184.39 464.2C184.39 464.2 230.03 485.51 246.46 485.77C264.57 486.06 315.61 464.2 315.61 464.2Z" fill="white"/>
<path opacity="0.4" d="M193.2 461.48C196.67 462.39 200.8 463.39 204.86 464.2C211.39 465.51 217.74 466.3 220.86 465.4C221.718 465.158 222.519 464.75 223.22 464.2C228.54 460.09 227.48 448.97 227.48 448.97C268.82 445.9 286.42 408.9 286.96 407.75C282.69 424.04 272.52 450.75 275.38 461.46C275.625 462.518 276.191 463.475 277 464.2C279.14 466.05 282.76 465.54 286.43 464.2C290.715 462.481 294.786 460.269 298.56 457.61C294.5 455.22 290.93 452.13 289.49 448.3C285.33 437.24 293.31 409.1 295.04 381.37H204.94C206.67 409.1 214.65 437.24 210.49 448.3C208.09 454.67 199.8 459 193.2 461.48Z" fill="url(#paint2_linear_194_27)"/>
<path d="M315.61 464.2C315.61 464.2 293.67 459.37 289.51 448.31C285.35 437.25 293.33 409.1 295.06 381.37H204.94C206.67 409.1 214.65 437.24 210.49 448.31C206.33 459.38 184.39 464.2 184.39 464.2" stroke="#263238" stroke-miterlimit="10"/>
<path d="M291.49 398.231C291.49 398.231 268.57 427.001 262.27 431.001C254 436.291 236.08 436.001 231.88 431.531C227.68 427.061 207.53 401.901 207.71 396.001C208.05 385.241 291.49 398.231 291.49 398.231Z" fill="#263238"/>
<path d="M199.48 341.101C199.48 341.101 192.48 331.311 188.79 330.521C186.59 330.051 181.85 333.121 181.51 335.811C181.17 338.501 184.63 353.401 183.59 356.521C182.55 359.641 188.16 368.391 192.24 373.111C196.32 377.831 197.44 380.591 200.24 376.781" fill="white"/>
<mask id="mask0_194_27" style="mask-type:luminance" maskUnits="userSpaceOnUse" x="181" y="330" width="20" height="49">
<path d="M199.48 341.101C199.48 341.101 192.48 331.311 188.79 330.521C186.59 330.051 181.85 333.121 181.51 335.811C181.17 338.501 184.63 353.401 183.59 356.521C182.55 359.641 188.16 368.391 192.24 373.111C196.32 377.831 197.44 380.591 200.24 376.781" fill="white"/>
</mask>
<g mask="url(#mask0_194_27)">
<path opacity="0.4" d="M183.59 356.521C182.59 359.641 188.17 368.391 192.24 373.101C196.31 377.811 197.44 380.591 200.24 376.781C197.24 377.911 194.92 371.661 196.3 370.451C197.68 369.241 196.63 354.211 194.67 351.881C192.71 349.551 190.41 333.881 186.94 332.881C185.56 332.461 183.6 333.581 181.75 335.081C181.644 335.327 181.57 335.586 181.53 335.851C181.16 338.501 184.62 353.401 183.59 356.521Z" fill="url(#paint3_linear_194_27)"/>
</g>
<path d="M199.48 341.101C199.48 341.101 192.48 331.311 188.79 330.521C186.59 330.051 181.85 333.121 181.51 335.811C181.17 338.501 184.63 353.401 183.59 356.521C182.55 359.641 188.16 368.391 192.24 373.111C196.32 377.831 197.44 380.591 200.24 376.781" stroke="#263238" stroke-linecap="round" stroke-linejoin="round"/>
<path d="M184.63 343.52C184.63 343.52 183.63 339.07 185.84 337.92C188.05 336.77 190.96 350.87 192.78 352.19C194.6 353.51 193.3 356.87 192.78 358.78C192.26 360.69 194.34 361.2 194.51 362.59C194.68 363.98 194.86 365.59 193.82 365.88C192.78 366.17 189.14 363.63 188.1 361.55C187.06 359.47 186.53 353.23 186.53 353.23" stroke="#263238" stroke-linecap="round" stroke-linejoin="round"/>
<path d="M191 348.67C190.675 348.524 190.319 348.464 189.964 348.495C189.609 348.527 189.269 348.649 188.975 348.849C188.681 349.05 188.443 349.323 188.285 349.642C188.126 349.96 188.052 350.315 188.07 350.67" stroke="#263238" stroke-linecap="round" stroke-linejoin="round"/>
<path d="M300.52 341.101C300.52 341.101 307.52 331.311 311.21 330.521C313.41 330.051 318.15 333.121 318.49 335.811C318.83 338.501 315.37 353.401 316.41 356.521C317.45 359.641 311.84 368.391 307.76 373.111C303.68 377.831 302.56 380.591 299.76 376.781" fill="white"/>
<mask id="mask1_194_27" style="mask-type:luminance" maskUnits="userSpaceOnUse" x="299" y="330" width="20" height="49">
<path d="M300.52 341.101C300.52 341.101 307.52 331.311 311.21 330.521C313.41 330.051 318.15 333.121 318.49 335.811C318.83 338.501 315.37 353.401 316.41 356.521C317.45 359.641 311.84 368.391 307.76 373.111C303.68 377.831 302.56 380.591 299.76 376.781" fill="white"/>
</mask>
<g mask="url(#mask1_194_27)">
<path opacity="0.4" d="M299.8 376.78C302.56 380.58 303.68 377.83 307.8 373.1C311.92 368.37 317.49 359.64 316.45 356.52C315.41 353.4 318.88 338.52 318.54 335.81C318.501 335.553 318.431 335.301 318.33 335.06C316.47 333.55 314.5 332.42 313.11 332.84C309.64 333.84 307.34 349.56 305.38 351.84C303.42 354.12 302.38 369.2 303.74 370.41C305.1 371.62 302.78 377.85 299.8 376.78Z" fill="url(#paint4_linear_194_27)"/>
</g>
<path d="M300.52 341.101C300.52 341.101 307.52 331.311 311.21 330.521C313.41 330.051 318.15 333.121 318.49 335.811C318.83 338.501 315.37 353.401 316.41 356.521C317.45 359.641 311.84 368.391 307.76 373.111C303.68 377.831 302.56 380.591 299.76 376.781" stroke="#263238" stroke-linecap="round" stroke-linejoin="round"/>
<path d="M315.37 343.52C315.37 343.52 316.37 339.07 314.16 337.92C311.95 336.77 309.04 350.87 307.22 352.19C305.4 353.51 306.7 356.87 307.22 358.78C307.74 360.69 305.66 361.2 305.49 362.59C305.32 363.98 305.14 365.59 306.18 365.88C307.22 366.17 310.86 363.63 311.9 361.55C312.94 359.47 313.47 353.23 313.47 353.23" stroke="#263238" stroke-linecap="round" stroke-linejoin="round"/>
<path d="M309 348.67C309.325 348.524 309.681 348.464 310.036 348.495C310.391 348.527 310.731 348.649 311.025 348.849C311.319 349.05 311.557 349.323 311.715 349.642C311.874 349.96 311.948 350.315 311.93 350.67" stroke="#263238" stroke-linecap="round" stroke-linejoin="round"/>
<path d="M306.88 301.341C305.65 286.051 295.67 253.911 250.16 253.711H249.84C204.33 253.911 194.35 286.051 193.12 301.341C191.89 316.631 198.38 373.451 200.68 384.191C203.14 395.701 214.77 404.191 226.88 416.831C235.63 425.991 236.99 427.161 249.88 427.301H250.2C263.05 427.161 264.41 425.991 273.2 416.831C285.31 404.161 296.94 395.701 299.4 384.191C301.62 373.451 308.11 316.661 306.88 301.341Z" fill="white"/>
<mask id="mask2_194_27" style="mask-type:luminance" maskUnits="userSpaceOnUse" x="192" y="253" width="116" height="175">
<path d="M306.88 301.341C305.65 286.051 295.67 253.911 250.16 253.711H249.84C204.33 253.911 194.35 286.051 193.12 301.341C191.89 316.631 198.38 373.451 200.68 384.191C203.14 395.701 214.77 404.191 226.88 416.831C235.63 425.991 236.99 427.161 249.88 427.301H250.2C263.05 427.161 264.41 425.991 273.2 416.831C285.31 404.161 296.94 395.701 299.4 384.191C301.62 373.451 308.11 316.661 306.88 301.341Z" fill="white"/>
</mask>
<g mask="url(#mask2_194_27)">
<path opacity="0.4" d="M250.081 371.221C244.961 371.221 242.771 367.851 241.151 367.851C239.672 367.938 238.204 368.148 236.761 368.481C236.761 368.481 237.261 363.551 240.181 361.551C240.181 361.551 231.441 366.041 230.501 368.481C229.561 370.921 230.501 381.371 230.501 381.371C230.501 381.371 234.381 373.721 235.281 374.521C238.312 377.012 242.079 378.436 246.001 378.571L245.001 381.371L249.491 383.371C249.491 383.371 248.491 379.371 250.001 378.611C251.511 377.851 254.001 379.441 254.001 379.441C254.001 379.441 262.271 377.441 264.721 374.561C265.961 373.111 268.121 381.411 268.121 381.411C268.121 381.411 269.281 370.941 268.121 367.411C266.961 363.881 260.621 361.631 260.621 361.631C260.621 361.631 264.521 365.791 263.241 368.561C263.241 368.561 261.381 367.501 257.791 368.191C257.531 368.161 253.351 371.221 250.081 371.221Z" fill="url(#paint5_linear_194_27)"/>
<path opacity="0.4" d="M267.411 389.831C267.411 389.831 268.671 387.901 255.411 385.761L250.001 387.381L244.561 385.761C244.561 385.761 233.211 387.361 231.561 389.831C236.656 390.199 241.774 390.143 246.861 389.661L250.001 390.801L253.141 389.661C253.141 389.661 265.221 390.141 267.411 389.831Z" fill="url(#paint6_linear_194_27)"/>
<path opacity="0.4" d="M264.72 394.611C264.72 394.611 263.54 398.361 260.16 399.611C256.78 400.861 243.43 401.691 240.39 399.611C238.442 398.215 236.719 396.529 235.28 394.611C240.085 395.863 245.099 396.098 250 395.301C258.5 394.001 260 397.271 264.72 394.611Z" fill="url(#paint7_linear_194_27)"/>
<path opacity="0.4" d="M275.421 326.711C274.801 325.211 264.121 325.711 263.151 326.711C262.181 327.711 256.871 334.431 255.601 339.201C254.482 343.99 254.002 348.906 254.171 353.821C254.391 356.471 259.021 351.361 260.931 348.511C262.841 345.661 261.531 341.411 262.271 339.201C263.011 336.991 267.441 342.291 267.441 342.291C267.441 342.291 263.571 336.991 264.761 334.391C265.951 331.791 275.421 326.711 275.421 326.711Z" fill="url(#paint8_linear_194_27)"/>
<path opacity="0.4" d="M242.38 336.651C242.38 336.651 236.88 327.171 235.28 326.331C233.68 325.491 229.38 325.381 228.34 326.331C227.3 327.281 225.82 330.711 227.52 330.471C229.22 330.231 242.56 341.671 242.38 336.651Z" fill="url(#paint9_linear_194_27)"/>
<path opacity="0.4" d="M299.32 384.191C297.68 391.871 291.96 398.191 284.74 405.311C286.74 396.801 287.45 385.951 287.46 377.211C287.46 362.991 294.02 354.321 296.34 348.791C298.66 343.261 292.06 340.161 292.06 340.161C292.06 340.161 286.06 332.841 287.78 331.791C289.5 330.741 292.51 322.431 292.51 322.431L296.34 322.251C294.12 317.791 291.25 308.911 292.51 305.121C293.77 301.331 290.21 288.461 290.21 288.461L306.21 296.181C306.525 297.888 306.752 299.61 306.89 301.341C308.11 316.661 301.62 373.451 299.32 384.191Z" fill="url(#paint10_linear_194_27)"/>
<path opacity="0.4" d="M215.261 405.311C208.041 398.191 202.321 391.871 200.681 384.191C198.381 373.451 191.891 316.661 193.131 301.341C193.269 299.61 193.496 297.888 193.811 296.181L209.811 288.461C209.811 288.461 206.251 301.321 207.511 305.121C208.771 308.921 205.901 317.791 203.681 322.251L207.511 322.431C207.511 322.431 210.511 330.751 212.241 331.791C213.971 332.831 207.961 340.161 207.961 340.161C207.961 340.161 201.351 343.241 203.681 348.791C206.011 354.341 212.521 362.991 212.561 377.211C212.551 386.001 213.221 396.801 215.261 405.311Z" fill="url(#paint11_linear_194_27)"/>
</g>
<path d="M306.88 301.341C305.65 286.051 295.67 253.911 250.16 253.711H249.84C204.33 253.911 194.35 286.051 193.12 301.341C191.89 316.631 198.38 373.451 200.68 384.191C203.14 395.701 214.77 404.191 226.88 416.831C235.63 425.991 236.99 427.161 249.88 427.301H250.2C263.05 427.161 264.41 425.991 273.2 416.831C285.31 404.161 296.94 395.701 299.4 384.191C301.62 373.451 308.11 316.661 306.88 301.341Z" stroke="#263238" stroke-linecap="round" stroke-linejoin="round"/>
<path d="M263.48 323.211C263.74 322.24 264.273 321.364 265.015 320.687C265.758 320.009 266.68 319.56 267.67 319.391C272.99 318.331 280.24 316.751 286.77 318.731C295.92 321.511 295.58 326.731 295.58 326.731C294.678 325.24 293.371 324.035 291.812 323.256C290.253 322.477 288.505 322.157 286.77 322.331C280.67 322.911 263.15 324.651 263.15 324.651L263.48 323.211Z" fill="#263238"/>
<path d="M286.81 339.911C286.81 339.911 283.65 344.421 275.86 344.351C268.07 344.281 265.71 339.881 265.71 339.881L269.05 341.051C271.379 341.972 273.873 342.407 276.376 342.33C278.88 342.252 281.342 341.664 283.61 340.601L286.81 339.911Z" fill="#263238"/>
<path d="M267.43 336.14C267.43 336.14 271.24 332.04 274.43 331.91" stroke="#263238" stroke-linecap="round" stroke-linejoin="round"/>
<path d="M255 341.101C252.75 347.341 255 361.551 255 361.551" stroke="#263238" stroke-linecap="round" stroke-linejoin="round"/>
<path d="M268.09 339.11C268.09 339.11 276.4 342.57 283.33 339.11" stroke="#263238" stroke-linecap="round" stroke-linejoin="round"/>
<path d="M261.32 330.521C261.32 330.521 264.02 325.901 266.32 325.521" stroke="#263238" stroke-linecap="round" stroke-linejoin="round"/>
<path d="M236.52 323.211C236.26 322.24 235.727 321.364 234.985 320.687C234.242 320.009 233.32 319.56 232.33 319.391C227.01 318.331 219.76 316.751 213.23 318.731C204.08 321.511 204.42 326.731 204.42 326.731C205.322 325.24 206.629 324.035 208.188 323.256C209.747 322.477 211.495 322.157 213.23 322.331C219.33 322.911 236.85 324.651 236.85 324.651L236.52 323.211Z" fill="#263238"/>
<path d="M214.19 339.911C214.19 339.911 217.35 344.421 225.14 344.351C232.93 344.281 235.29 339.881 235.29 339.881L232 341.051C229.671 341.972 227.178 342.407 224.674 342.33C222.17 342.252 219.709 341.664 217.44 340.601L214.19 339.911Z" fill="#263238"/>
<path d="M233.57 336.14C233.57 336.14 229.76 332.04 226.57 331.91" stroke="#263238" stroke-linecap="round" stroke-linejoin="round"/>
<path d="M232.91 339.11C232.91 339.11 224.6 342.57 217.67 339.11" stroke="#263238" stroke-linecap="round" stroke-linejoin="round"/>
<path d="M233.69 325.5C241.1 326.71 245 341.1 245 341.1C247.25 347.34 245 361.55 245 361.55" stroke="#263238" stroke-linecap="round" stroke-linejoin="round"/>
<path d="M243.13 368.62C245.04 370.358 247.548 371.29 250.13 371.22C251.378 371.262 252.622 371.053 253.788 370.606C254.954 370.16 256.019 369.484 256.92 368.62" stroke="#263238" stroke-linecap="round" stroke-linejoin="round"/>
<path d="M253.61 376.171C254.513 375.076 255.571 374.12 256.75 373.331C258.33 372.391 259.39 374.121 259.39 374.121C259.39 374.121 257.39 376.031 255.82 375.721L253.61 376.171Z" fill="#263238"/>
<path d="M246.39 376.171C245.487 375.076 244.429 374.12 243.25 373.331C241.67 372.391 240.61 374.121 240.61 374.121C240.61 374.121 242.61 376.031 244.18 375.721L246.39 376.171Z" fill="#263238"/>
<path d="M240.18 375.74C240.18 375.74 235.47 374.38 235.3 372.12C235.26 371.444 235.369 370.766 235.622 370.137C235.874 369.507 236.263 368.942 236.76 368.48" stroke="#263238" stroke-linecap="round" stroke-linejoin="round"/>
<path d="M259.82 375.74C259.82 375.74 264.53 374.38 264.7 372.12C264.741 371.444 264.631 370.766 264.379 370.137C264.126 369.507 263.737 368.942 263.24 368.48" stroke="#263238" stroke-linecap="round" stroke-linejoin="round"/>
<path d="M269.5 391.161C269.5 391.161 268.55 389.061 267.41 389.831C266.27 390.601 253.71 389.301 253.14 389.661C252.86 389.841 250 390.801 250 390.801C250 390.801 247.14 389.801 246.86 389.661C246.29 389.301 233.73 390.591 232.59 389.831C231.45 389.071 230.5 391.161 230.5 391.161" stroke="#263238" stroke-linecap="round" stroke-linejoin="round"/>
<path d="M266.19 393.221C266.19 393.221 263.88 396.001 261.33 396.001C258.78 396.001 256 395.301 250 395.301C244 395.301 241.21 396.001 238.67 396.001C236.13 396.001 233.81 393.221 233.81 393.221" stroke="#263238" stroke-linecap="round" stroke-linejoin="round"/>
<path d="M266.19 387.841C266.19 387.841 257.64 385.841 255.44 385.761L250 387.381L244.56 385.761C242.36 385.881 233.81 387.841 233.81 387.841" stroke="#263238" stroke-linecap="round" stroke-linejoin="round"/>
<path d="M305.359 267.12C295.749 255.18 270.209 245.82 245.889 249.46C245.889 249.46 252.749 246.85 256.569 246.85C256.569 246.85 238.259 246.23 232.569 251.71L238.269 246.23C238.269 246.23 218.529 251.74 214.269 259.23L218.509 251.79C218.509 251.79 215.599 253 211.849 255C204.279 258.25 198.099 262.51 194.359 267.17C184.749 279.11 189.229 305.17 189.229 305.17C187.669 334.66 197.029 356.9 197.029 356.9C196.129 345.98 198.779 317.84 198.779 317.84C198.779 317.84 203.779 314.84 203.779 310.04C203.779 305.24 206.779 290.59 212.289 290.24C217.799 289.89 248.999 296.34 248.999 296.34L249.829 296.02L250.659 296.34C250.659 296.34 281.859 289.84 287.399 290.19C292.939 290.54 295.969 305.19 295.919 309.99C295.869 314.79 300.919 317.79 300.919 317.79C300.919 317.79 303.579 345.93 302.679 356.85C302.679 356.85 312.029 334.61 310.479 305.12C310.489 305.12 314.999 279.06 305.359 267.12Z" fill="#263238"/>
<path opacity="0.3" d="M251 290.001C251 290.001 241.24 276.451 248.57 263.801" stroke="white" stroke-linecap="round" stroke-linejoin="round"/>
<path opacity="0.3" d="M243.43 290.001C243.43 290.001 229.71 279.881 229.9 268.811" stroke="white" stroke-linecap="round" stroke-linejoin="round"/>
<path opacity="0.3" d="M233.69 288.66C233.69 288.66 215.06 283.95 212.94 274.82" stroke="white" stroke-linecap="round" stroke-linejoin="round"/>
<path opacity="0.3" d="M261.32 290C261.32 290 261.32 277.32 270.38 270.65" stroke="white" stroke-linecap="round" stroke-linejoin="round"/>
<path opacity="0.3" d="M270.38 288.661C271.684 286.367 273.472 284.386 275.621 282.856C277.769 281.326 280.226 280.283 282.82 279.801" stroke="white" stroke-linecap="round" stroke-linejoin="round"/>
<path d="M384.599 109.8V103.65L379.989 103.25C379.722 102.287 379.34 101.36 378.849 100.49L381.849 96.9599L377.499 92.6199L373.969 95.6199C373.098 95.1321 372.171 94.7494 371.209 94.4799L370.809 89.8799H364.669L364.269 94.4799C363.308 94.7494 362.381 95.1321 361.509 95.6199L357.979 92.6199L353.609 96.9999L356.609 100.53C356.119 101.4 355.736 102.327 355.469 103.29L350.859 103.69V109.84L355.469 110.23C355.735 111.193 356.117 112.12 356.609 112.99L353.609 116.52L357.959 120.87L361.489 117.87C362.361 118.354 363.288 118.734 364.249 119L364.649 123.61H370.789L371.189 119C372.151 118.734 373.077 118.354 373.949 117.87L377.479 120.87L381.829 116.52L378.829 112.99C379.321 112.12 379.704 111.193 379.969 110.23L384.599 109.8ZM367.719 113.86C366.307 113.86 364.927 113.441 363.753 112.657C362.578 111.872 361.663 110.757 361.123 109.452C360.582 108.148 360.441 106.712 360.717 105.327C360.992 103.942 361.672 102.67 362.671 101.671C363.669 100.673 364.941 99.9926 366.326 99.7171C367.711 99.4416 369.147 99.583 370.452 100.123C371.756 100.664 372.872 101.579 373.656 102.753C374.441 103.927 374.859 105.308 374.859 106.72C374.859 108.614 374.107 110.43 372.768 111.769C371.429 113.108 369.613 113.86 367.719 113.86Z" stroke="#FFF4D1" stroke-width="3" stroke-linecap="round" stroke-linejoin="round"/>
<path d="M407.93 123.51V119.14L404.65 118.86C404.467 118.162 404.195 117.49 403.84 116.86L405.96 114.34L402.87 111.25L400.35 113.36C399.717 113.014 399.046 112.743 398.35 112.55L398.07 109.28H393.69L393.41 112.55C392.715 112.743 392.044 113.014 391.41 113.36L389 111.29L385.9 114.38L388 116.9C387.646 117.53 387.373 118.202 387.19 118.9L383.91 119.18V123.55L387.19 123.84C387.375 124.538 387.647 125.21 388 125.84L385.88 128.35L388.98 131.44L391.49 129.33C392.124 129.676 392.795 129.948 393.49 130.14L393.77 133.42H398.15L398.43 130.14C399.126 129.948 399.797 129.676 400.43 129.33L402.95 131.44L406.04 128.35L403.92 125.84C404.273 125.21 404.545 124.538 404.73 123.84L407.93 123.51ZM395.93 126.41C394.925 126.41 393.943 126.112 393.108 125.554C392.272 124.996 391.621 124.203 391.237 123.274C390.852 122.346 390.752 121.325 390.948 120.339C391.144 119.354 391.628 118.449 392.338 117.738C393.048 117.028 393.954 116.544 394.939 116.348C395.925 116.152 396.946 116.252 397.874 116.637C398.802 117.021 399.596 117.673 400.154 118.508C400.712 119.343 401.01 120.326 401.01 121.33C401.01 121.998 400.878 122.66 400.622 123.277C400.367 123.894 399.991 124.454 399.519 124.926C399.046 125.398 398.485 125.772 397.867 126.026C397.25 126.281 396.588 126.412 395.92 126.41H395.93Z" stroke="#FFF4D1" stroke-width="3" stroke-linecap="round" stroke-linejoin="round"/>
<path d="M383.54 136.7V133.59L381.21 133.39C381.071 132.902 380.876 132.433 380.63 131.99L382.13 130.2L379.93 128L378.15 129.51C377.708 129.261 377.238 129.066 376.75 128.93L376.55 126.6H373.44L373.24 128.93C372.751 129.065 372.281 129.259 371.84 129.51L370.05 128L367.85 130.2L369.35 131.99C369.107 132.433 368.916 132.903 368.78 133.39L366.45 133.59V136.7L368.78 136.9C368.918 137.386 369.109 137.855 369.35 138.3L367.85 140.09L370.05 142.29L371.84 140.78C372.281 141.03 372.751 141.225 373.24 141.36L373.44 143.69H376.55L376.75 141.36C377.238 141.223 377.708 141.028 378.15 140.78L379.93 142.29L382.13 140.09L380.63 138.3C380.874 137.856 381.069 137.386 381.21 136.9L383.54 136.7ZM375 138.76C374.284 138.76 373.584 138.547 372.989 138.15C372.394 137.752 371.93 137.186 371.656 136.525C371.382 135.863 371.31 135.136 371.45 134.433C371.589 133.731 371.934 133.086 372.44 132.58C372.947 132.074 373.592 131.729 374.294 131.589C374.996 131.449 375.724 131.521 376.385 131.795C377.047 132.069 377.612 132.533 378.01 133.128C378.408 133.724 378.62 134.424 378.62 135.14C378.62 136.1 378.239 137.02 377.56 137.699C376.881 138.378 375.96 138.76 375 138.76Z" stroke="#FFF4D1" stroke-width="3" stroke-linecap="round" stroke-linejoin="round"/>
<path d="M335.239 116.77C335.238 110.972 336.379 105.23 338.597 99.8731C340.816 94.516 344.068 89.6484 348.168 85.5484C352.268 81.4485 357.135 78.1964 362.492 75.9782C367.849 73.7599 373.591 72.6188 379.389 72.6201" stroke="#FFF4D1" stroke-width="3" stroke-linecap="round" stroke-linejoin="round"/>
<path d="M393.41 158.64C387.422 160.639 381.074 161.332 374.795 160.67C368.517 160.009 362.453 158.01 357.012 154.806C351.572 151.603 346.881 147.271 343.256 142.102C339.632 136.933 337.157 131.046 336 124.84" stroke="#FFF4D1" stroke-width="3" stroke-linecap="round" stroke-linejoin="round"/>
<path d="M405.68 152.24C403.687 153.713 401.577 155.021 399.37 156.15" stroke="#FFF4D1" stroke-width="3" stroke-linecap="round" stroke-linejoin="round"/>
<path d="M423.539 116.771C423.546 122.571 422.407 128.316 420.188 133.675C417.969 139.034 414.714 143.902 410.609 148.001" stroke="#FFF4D1" stroke-width="3" stroke-linecap="round" stroke-linejoin="round"/>
<path d="M388.279 73.5098C399.642 75.8503 409.628 82.5674 416.079 92.2098" stroke="#FFF4D1" stroke-width="3" stroke-linecap="round" stroke-linejoin="round"/>
<path d="M107.66 100.34L105.22 103.69" stroke="#FFF4D1" stroke-width="3" stroke-linecap="round" stroke-linejoin="round"/>
<path d="M102.66 101.82L105.1 98.4697" stroke="#FFF4D1" stroke-width="3" stroke-linecap="round" stroke-linejoin="round"/>
<path d="M119.092 102.312C128.071 100.663 134.013 92.0465 132.363 83.0675C130.713 74.0885 122.097 68.1468 113.118 69.7964C104.139 71.446 98.1976 80.0621 99.8472 89.0411C101.497 98.0201 110.113 103.962 119.092 102.312Z" stroke="#FFF4D1" stroke-width="3" stroke-linecap="round" stroke-linejoin="round"/>
<path d="M86.41 126.83C86.1385 126.634 85.9086 126.386 85.7335 126.1C85.5583 125.815 85.4413 125.497 85.3893 125.167C85.3372 124.836 85.3511 124.498 85.4302 124.172C85.5092 123.847 85.6519 123.54 85.8499 123.27L100.71 102.86C101.108 102.314 101.707 101.948 102.374 101.843C103.042 101.738 103.723 101.903 104.27 102.3C104.541 102.496 104.771 102.744 104.946 103.03C105.122 103.315 105.239 103.633 105.291 103.964C105.343 104.294 105.329 104.632 105.25 104.958C105.171 105.283 105.028 105.59 104.83 105.86L89.9999 126.27C89.8035 126.546 89.554 126.779 89.266 126.957C88.9779 127.135 88.6573 127.254 88.3228 127.306C87.9884 127.358 87.6469 127.343 87.3184 127.261C86.9899 127.179 86.681 127.033 86.41 126.83Z" stroke="#FFF4D1" stroke-width="3" stroke-linecap="round" stroke-linejoin="round"/>
<path d="M127.7 94.4903C126.033 96.7877 123.723 98.539 121.06 99.5223C118.398 100.506 115.503 100.677 112.744 100.014C109.984 99.3514 107.483 97.8847 105.557 95.7997C103.632 93.7147 102.368 91.1051 101.927 88.3015C101.485 85.4979 101.885 82.6263 103.077 80.0503C104.268 77.4744 106.197 75.3099 108.62 73.831C111.042 72.3521 113.849 71.6254 116.685 71.7427C119.521 71.8601 122.258 72.8163 124.55 74.4903C127.614 76.7287 129.667 80.0906 130.257 83.8394C130.848 87.5883 129.928 91.4183 127.7 94.4903Z" stroke="#FFF4D1" stroke-width="3" stroke-linecap="round" stroke-linejoin="round"/>
<path d="M90.3999 138.18C79.7853 133.24 71.5677 124.286 67.5546 113.287C63.5414 102.288 64.0613 90.1457 68.9999 79.5303" stroke="#FFF4D1" stroke-width="3" stroke-linecap="round" stroke-linejoin="round"/>
<path d="M152.9 103.09C152.191 109.369 150.142 115.424 146.894 120.844C143.645 126.264 139.271 130.925 134.067 134.51C128.864 138.096 122.951 140.524 116.729 141.629C110.507 142.735 104.12 142.493 98 140.92" stroke="#FFF4D1" stroke-width="3" stroke-linecap="round" stroke-linejoin="round"/>
<path d="M152.26 89.2705C152.762 91.6979 153.06 94.1633 153.15 96.6405" stroke="#FFF4D1" stroke-width="3" stroke-linecap="round" stroke-linejoin="round"/>
<path d="M127.63 58.1201C132.89 60.5574 137.616 64.0102 141.538 68.2799C145.459 72.5496 148.498 77.5522 150.48 83.0001" stroke="#FFF4D1" stroke-width="3" stroke-linecap="round" stroke-linejoin="round"/>
<path d="M73.5498 71.8403C78.7817 64.7872 85.9998 59.4563 94.2798 56.5303C96.8603 55.6241 99.5179 54.9546 102.22 54.5303" stroke="#FFF4D1" stroke-width="3" stroke-linecap="round" stroke-linejoin="round"/>
<path d="M36.2197 208.35C36.2184 204.002 37.0739 199.695 38.7372 195.677C40.4005 191.659 42.8392 188.007 45.9139 184.932C48.9886 181.856 52.639 179.416 56.6568 177.752C60.6745 176.087 64.9808 175.23 69.3297 175.23" stroke="#FFF4D1" stroke-width="3" stroke-linecap="round" stroke-linejoin="round"/>
<path d="M79.8495 239.75C75.3568 241.252 70.5944 241.772 65.8834 241.277C61.1724 240.782 56.6223 239.283 52.5397 236.881C48.4572 234.478 44.937 231.229 42.2167 227.351C39.4963 223.473 37.6388 219.057 36.7695 214.4" stroke="#FFF4D1" stroke-width="3" stroke-linecap="round" stroke-linejoin="round"/>
<path d="M89.0496 235C87.5554 236.109 85.9697 237.089 84.3096 237.93" stroke="#FFF4D1" stroke-width="3" stroke-linecap="round" stroke-linejoin="round"/>
<path d="M102.439 208.35C102.445 212.698 101.59 217.005 99.9258 221.023C98.2611 225.04 95.8188 228.689 92.7393 231.76" stroke="#FFF4D1" stroke-width="3" stroke-linecap="round" stroke-linejoin="round"/>
<path d="M76 175.91C84.518 177.66 92.0067 182.688 96.85 189.91" stroke="#FFF4D1" stroke-width="3" stroke-linecap="round" stroke-linejoin="round"/>
<path d="M82.6293 201.59C82.6317 199.247 82.0153 196.946 80.8425 194.918C79.6698 192.89 77.9822 191.208 75.9507 190.042C73.9191 188.876 71.6155 188.267 69.273 188.276C66.9305 188.286 64.6322 188.915 62.6105 190.098C60.5889 191.282 58.9156 192.978 57.7601 195.016C56.6046 197.053 56.0077 199.36 56.0299 201.702C56.0521 204.045 56.6926 206.34 57.8865 208.355C59.0805 210.371 60.7856 212.035 62.8293 213.18L63.2693 214.88H75.3893L75.8193 213.18C77.8829 212.029 79.602 210.347 80.7991 208.31C81.9962 206.273 82.628 203.953 82.6293 201.59Z" stroke="#FFF4D1" stroke-width="3" stroke-linecap="round" stroke-linejoin="round"/>
<path d="M72.9998 225.89H65.5998C65.1295 225.888 64.6766 225.712 64.3279 225.396C63.9791 225.081 63.759 224.648 63.7098 224.18L62.7998 214.88H75.7998L74.8898 224.18C74.8449 224.649 74.6261 225.085 74.2764 225.401C73.9267 225.718 73.4714 225.892 72.9998 225.89Z" stroke="#FFF4D1" stroke-width="3" stroke-linecap="round" stroke-linejoin="round"/>
<path d="M73.1693 226.06C73.1693 227.35 71.4493 228.4 69.3293 228.4C67.2093 228.4 65.4893 227.35 65.4893 226.06" stroke="#FFF4D1" stroke-width="3" stroke-linecap="round" stroke-linejoin="round"/>
<path d="M62.8301 204.79H65.9201L67.8401 200.74L70.0801 208.52L72.4201 201.59L73.5901 204.63H75.8201" stroke="#FFF4D1" stroke-width="3" stroke-linecap="round" stroke-linejoin="round"/>
<path d="M240.359 29.34C245.203 27.1909 250.701 27.0516 255.647 28.9527C260.593 30.8539 264.582 34.6401 266.739 39.48" stroke="#FFF4D1" stroke-width="3" stroke-linecap="round" stroke-linejoin="round"/>
<path d="M233.74 61.1104C231.806 59.0003 230.347 56.4997 229.463 53.7774C228.578 51.0552 228.288 48.1748 228.612 45.3308C228.936 42.4869 229.867 39.7456 231.342 37.2924C232.817 34.8391 234.801 32.7309 237.16 31.1104" stroke="#FFF4D1" stroke-width="3" stroke-linecap="round" stroke-linejoin="round"/>
<path d="M238.639 65.0004C237.663 64.447 236.733 63.8149 235.859 63.1104" stroke="#FFF4D1" stroke-width="3" stroke-linecap="round" stroke-linejoin="round"/>
<path d="M256.6 65.8701C254.203 66.9398 251.618 67.525 248.994 67.5919C246.369 67.6588 243.758 67.2062 241.31 66.2601" stroke="#FFF4D1" stroke-width="3" stroke-linecap="round" stroke-linejoin="round"/>
<path d="M268 43.3301C269.105 48.4613 268.165 53.821 265.38 58.2701" stroke="#FFF4D1" stroke-width="3" stroke-linecap="round" stroke-linejoin="round"/>
<path d="M250.16 52.6003H246.8L244.8 36.1104H252.16L250.16 52.6003Z" stroke="#FFF4D1" stroke-width="3" stroke-linecap="round" stroke-linejoin="round"/>
<path d="M250.16 55.5996H246.8L245.8 59.0996H251.16L250.16 55.5996Z" stroke="#FFF4D1" stroke-width="3" stroke-linecap="round" stroke-linejoin="round"/>
<path d="M439.91 248.2C434.756 249.437 429.321 248.578 424.8 245.81C420.279 243.042 417.042 238.593 415.8 233.44" stroke="#FFF4D1" stroke-width="3" stroke-linecap="round" stroke-linejoin="round"/>
<path d="M452.18 218.15C453.694 220.574 454.671 223.294 455.045 226.128C455.419 228.961 455.182 231.842 454.349 234.575C453.516 237.309 452.107 239.833 450.216 241.976C448.326 244.119 445.998 245.833 443.39 247" stroke="#FFF4D1" stroke-width="3" stroke-linecap="round" stroke-linejoin="round"/>
<path d="M448.06 213.43C448.922 214.15 449.722 214.943 450.45 215.8" stroke="#FFF4D1" stroke-width="3" stroke-linecap="round" stroke-linejoin="round"/>
<path d="M430.56 209.33C433.111 208.713 435.76 208.607 438.353 209.017C440.946 209.427 443.433 210.346 445.67 211.72" stroke="#FFF4D1" stroke-width="3" stroke-linecap="round" stroke-linejoin="round"/>
<path d="M415.25 229.43C415.108 225.459 416.153 221.535 418.25 218.16C418.908 217.11 419.661 216.122 420.5 215.21" stroke="#FFF4D1" stroke-width="3" stroke-linecap="round" stroke-linejoin="round"/>
<path d="M441.519 220.76C440.36 220.388 439.109 220.418 437.969 220.847C436.828 221.275 435.867 222.076 435.239 223.12C434.609 222.075 433.643 221.273 432.5 220.844C431.357 220.416 430.102 220.386 428.939 220.76C425.309 221.88 424.049 226.51 427.109 230.76C429.153 233.292 431.731 235.341 434.659 236.76L435.239 237.04L435.809 236.76C438.739 235.343 441.318 233.294 443.359 230.76C446.419 226.51 445.149 221.88 441.519 220.76Z" stroke="#FFF4D1" stroke-width="3" stroke-linecap="round" stroke-linejoin="round"/>
<path d="M359.41 270.33C362.707 268.625 366.308 267.587 370.007 267.274C373.705 266.962 377.429 267.381 380.966 268.509C384.502 269.636 387.782 271.449 390.617 273.845C393.453 276.24 395.788 279.171 397.49 282.47" stroke="#FFF4D1" stroke-width="3" stroke-linecap="round" stroke-linejoin="round"/>
<path d="M352.68 315.72C349.78 312.902 347.519 309.494 346.049 305.727C344.578 301.961 343.933 297.922 344.155 293.885C344.378 289.848 345.464 285.905 347.34 282.323C349.216 278.741 351.838 275.603 355.03 273.12" stroke="#FFF4D1" stroke-width="3" stroke-linecap="round" stroke-linejoin="round"/>
<path d="M359.93 320.82C358.505 320.116 357.141 319.296 355.85 318.37" stroke="#FFF4D1" stroke-width="3" stroke-linecap="round" stroke-linejoin="round"/>
<path d="M385.35 320.55C382.055 322.258 378.455 323.299 374.757 323.611C371.058 323.923 367.335 323.502 363.8 322.37" stroke="#FFF4D1" stroke-width="3" stroke-linecap="round" stroke-linejoin="round"/>
<path d="M399.6 287.79C401.118 293.205 400.986 298.95 399.22 304.29C398.677 305.956 397.977 307.566 397.13 309.1" stroke="#FFF4D1" stroke-width="3" stroke-linecap="round" stroke-linejoin="round"/>
<path d="M373.039 308.04C380.39 308.04 386.349 302.081 386.349 294.73C386.349 287.379 380.39 281.42 373.039 281.42C365.689 281.42 359.729 287.379 359.729 294.73C359.729 302.081 365.689 308.04 373.039 308.04Z" stroke="#FFF4D1" stroke-width="3" stroke-linecap="round" stroke-linejoin="round"/>
<path d="M375.789 297.59C375.221 298.143 374.5 298.515 373.719 298.658C372.938 298.801 372.132 298.709 371.404 298.392C370.676 298.076 370.059 297.55 369.631 296.881C369.203 296.213 368.983 295.432 369 294.638C369.017 293.844 369.27 293.074 369.726 292.424C370.182 291.775 370.822 291.276 371.563 290.99C372.304 290.705 373.112 290.647 373.887 290.823C374.661 291 375.365 291.402 375.909 291.98C376.63 292.743 377.021 293.76 376.998 294.809C376.976 295.859 376.542 296.857 375.789 297.59Z" stroke="#FFF4D1" stroke-width="3" stroke-linecap="round" stroke-linejoin="round"/>
<path d="M378.839 300.78C377.642 301.925 376.131 302.69 374.499 302.978C372.867 303.265 371.186 303.062 369.669 302.394C368.153 301.727 366.868 300.624 365.978 299.226C365.087 297.828 364.632 296.198 364.668 294.541C364.704 292.884 365.231 291.275 366.182 289.918C367.133 288.56 368.465 287.515 370.009 286.914C371.554 286.314 373.242 286.185 374.86 286.543C376.478 286.902 377.953 287.733 379.099 288.93C379.86 289.725 380.458 290.662 380.856 291.688C381.255 292.714 381.448 293.808 381.424 294.909C381.4 296.009 381.159 297.094 380.716 298.101C380.272 299.109 379.635 300.019 378.839 300.78Z" stroke="#FFF4D1" stroke-width="3" stroke-linecap="round" stroke-linejoin="round"/>
<path d="M373.04 294.73L387.53 280.86" stroke="#FFF4D1" stroke-width="3" stroke-linecap="round" stroke-linejoin="round"/>
<path d="M387.639 277.36L387.569 280.82L391.029 280.89" stroke="#FFF4D1" stroke-width="3" stroke-linecap="round" stroke-linejoin="round"/>
<path d="M385.479 279.43L385.399 282.89L388.859 282.97" stroke="#FFF4D1" stroke-width="3" stroke-linecap="round" stroke-linejoin="round"/>
<path d="M383.309 281.51L383.239 284.97L386.699 285.04" stroke="#FFF4D1" stroke-width="3" stroke-linecap="round" stroke-linejoin="round"/>
<path d="M116.32 329.47C111.166 330.707 105.731 329.847 101.21 327.08C96.6896 324.312 93.4524 319.863 92.21 314.71" stroke="#FFF4D1" stroke-width="3" stroke-linecap="round" stroke-linejoin="round"/>
<path d="M128.59 299.42C130.107 301.844 131.087 304.566 131.463 307.402C131.84 310.237 131.603 313.12 130.77 315.857C129.937 318.593 128.526 321.119 126.634 323.264C124.742 325.409 122.411 327.123 119.8 328.29" stroke="#FFF4D1" stroke-width="3" stroke-linecap="round" stroke-linejoin="round"/>
<path d="M124.47 294.7C125.332 295.421 126.132 296.214 126.86 297.07" stroke="#FFF4D1" stroke-width="3" stroke-linecap="round" stroke-linejoin="round"/>
<path d="M107 290.6C109.548 289.988 112.191 289.886 114.779 290.297C117.367 290.709 119.848 291.628 122.08 293" stroke="#FFF4D1" stroke-width="3" stroke-linecap="round" stroke-linejoin="round"/>
<path d="M91.6596 310.7C91.5003 305.443 93.4188 300.334 96.9996 296.48" stroke="#FFF4D1" stroke-width="3" stroke-linecap="round" stroke-linejoin="round"/>
<path d="M103.02 302.71V317.35H120.27" stroke="#FFF4D1" stroke-width="3" stroke-linecap="round" stroke-linejoin="round"/>
<path d="M109.15 306.82H106.58V317.35H109.15V306.82Z" stroke="#FFF4D1" stroke-width="3" stroke-linecap="round" stroke-linejoin="round"/>
<path d="M114.15 309.82H111.58V317.35H114.15V309.82Z" stroke="#FFF4D1" stroke-width="3" stroke-linecap="round" stroke-linejoin="round"/>
<path d="M119.15 303.82H116.58V317.35H119.15V303.82Z" stroke="#FFF4D1" stroke-width="3" stroke-linecap="round" stroke-linejoin="round"/>
<path d="M131.64 294.73L250 182.92L104.27 201.85" stroke="#FFF4D1" stroke-width="3" stroke-linecap="round" stroke-linejoin="round"/>
<path d="M150.489 126.41L249.999 182.92L248.129 70.5596" stroke="#FFF4D1" stroke-width="3" stroke-linecap="round" stroke-linejoin="round"/>
<path d="M338.74 142.88L250 182.92L410.61 222.32" stroke="#FFF4D1" stroke-width="3" stroke-linecap="round" stroke-linejoin="round"/>
<path d="M250 182.92L349.57 273.12" stroke="#FFF4D1" stroke-width="3" stroke-linecap="round" stroke-linejoin="round"/>
<path d="M315.16 179.77C315.161 167.072 311.453 154.65 304.489 144.032C297.526 133.413 287.612 125.06 275.966 120C264.319 114.94 251.448 113.393 238.935 115.549C226.421 117.705 214.81 123.471 205.529 132.137C196.248 140.804 189.701 151.993 186.694 164.33C183.686 176.667 184.349 189.614 188.601 201.579C192.852 213.544 200.507 224.007 210.625 231.68C220.742 239.353 232.881 243.903 245.55 244.77L250 261.77L254.45 244.77C270.922 243.645 286.353 236.308 297.622 224.242C308.892 212.176 315.16 196.281 315.16 179.77Z" fill="#FFF4D1"/>
<path d="M315.16 179.77C315.161 167.072 311.453 154.65 304.489 144.032C297.526 133.413 287.612 125.06 275.966 120C264.319 114.94 251.448 113.393 238.935 115.549C226.421 117.705 214.81 123.471 205.529 132.137C196.248 140.804 189.701 151.993 186.694 164.33C183.686 176.667 184.349 189.614 188.601 201.579C192.852 213.544 200.507 224.007 210.625 231.68C220.742 239.353 232.881 243.903 245.55 244.77L250 261.77L254.45 244.77C270.922 243.645 286.353 236.308 297.622 224.242C308.892 212.176 315.16 196.281 315.16 179.77Z" stroke="#FFF4D1" stroke-width="3" stroke-linecap="round" stroke-linejoin="round"/>
<path d="M289 186.61C288.66 188.2 288.4 190.05 288.14 191.84C287.866 194.381 287.374 196.893 286.67 199.35C286.221 200.384 285.536 201.298 284.67 202.02C284.67 203.14 284.13 209.68 279.55 211.77C279.488 212.407 279.274 213.021 278.926 213.559C278.578 214.096 278.106 214.543 277.55 214.86C277.38 214.96 261.47 223.59 255.81 223.59C255.452 223.595 255.095 223.548 254.75 223.45C252.03 222.55 250.75 220.86 250.85 218.12C250.908 216.919 251.126 215.732 251.5 214.59C250.42 213.1 250.66 211.2 250.88 209.52C251.085 208.57 251.109 207.589 250.95 206.63C250.41 204.57 251.18 201.23 251.39 200.41C250.71 199.35 250.91 196.33 251.28 192.23C251.41 190.83 251.53 189.5 251.53 188.69C251.582 187.791 251.971 186.945 252.62 186.32C252.369 184.04 252.369 181.74 252.62 179.46C251.49 175.19 252.45 168.98 252.62 168.05C251.215 164.279 251.138 160.141 252.4 156.32C250.53 152.68 251.49 145.67 251.6 144.92C251.52 144.34 251.03 140.1 253.04 138.16C253.516 137.734 254.091 137.432 254.712 137.282C255.333 137.132 255.982 137.138 256.6 137.3C260.07 137.94 262.25 138.38 263.83 138.81C264.721 139.042 265.591 139.35 266.43 139.73C267.841 140.614 268.901 141.961 269.43 143.54C270.396 143.263 271.414 143.216 272.401 143.402C273.389 143.587 274.32 144.001 275.12 144.61C277.37 146.35 277.46 147.94 277.38 148.61C282.28 151.61 284.13 163.93 284.38 165.45C285.157 166.291 285.704 167.318 285.969 168.432C286.233 169.546 286.206 170.709 285.89 171.81C286.636 172.578 287.16 173.535 287.405 174.577C287.65 175.62 287.606 176.71 287.28 177.73C287.129 178.224 286.925 178.7 286.67 179.15C286.7 179.28 289.87 182.43 289 186.61Z" fill="url(#paint12_linear_194_27)"/>
<path opacity="0.2" d="M289 186.61C288.66 188.2 288.4 190.05 288.14 191.84C287.866 194.381 287.375 196.894 286.67 199.35C286.221 200.384 285.536 201.299 284.67 202.02C284.67 203.14 284.13 209.68 279.55 211.77C279.489 212.408 279.275 213.021 278.927 213.559C278.579 214.097 278.107 214.543 277.55 214.86C277.38 214.96 261.47 223.59 255.81 223.59C255.452 223.595 255.095 223.548 254.75 223.45C252.03 222.55 250.75 220.86 250.85 218.12C251.066 218.248 251.232 218.445 251.32 218.68C252.76 221.56 255.49 221.86 257.79 221.41C260.09 220.96 260.66 218.22 260.66 218.22L256.66 215.74C256.66 215.74 261.2 214.29 264.01 213.24C264.363 213.147 264.687 212.967 264.953 212.718C265.22 212.469 265.42 212.157 265.537 211.812C265.654 211.466 265.683 211.097 265.623 210.737C265.562 210.378 265.414 210.038 265.19 209.75C264.468 209.924 263.718 209.945 262.987 209.811C262.257 209.676 261.563 209.39 260.95 208.97C261.057 208.484 261.269 208.027 261.571 207.631C261.874 207.235 262.259 206.911 262.7 206.68C264.05 206.18 268.77 203.4 266.95 201.95C265.13 200.5 262.7 201.85 262.7 201.85C259.05 202.43 257.75 200.33 257.75 200.33C257.75 200.33 268 197.33 267.85 193.82C267.885 192.058 267.544 190.31 266.85 188.69C266.85 188.69 270.96 187.51 271.73 184.63C272.5 181.75 269.24 178.34 269.24 178.34C270.9 178.76 271.99 176.34 271.73 175.4C271.47 174.46 275.02 171.62 274.86 169.65C274.7 167.68 271.73 167.44 271.73 167.44C273.58 163.56 270.44 155.35 270.44 155.35C271.31 151.04 267.44 147.35 267.44 147.35C267.69 144.1 265.62 140.97 263.75 138.83C264.641 139.062 265.511 139.37 266.35 139.75C267.761 140.634 268.822 141.981 269.35 143.56C270.316 143.283 271.334 143.236 272.322 143.422C273.31 143.608 274.24 144.021 275.04 144.63C277.29 146.37 277.38 147.96 277.3 148.63C282.2 151.63 284.05 163.95 284.3 165.47C285.077 166.311 285.625 167.338 285.889 168.452C286.154 169.566 286.126 170.73 285.81 171.83C286.557 172.598 287.08 173.555 287.325 174.598C287.57 175.64 287.527 176.73 287.2 177.75C287.049 178.244 286.845 178.72 286.59 179.17C286.7 179.28 289.87 182.43 289 186.61Z" fill="black"/>
<path d="M248.55 214.59C250.05 219.49 249.04 222.22 245.3 223.45C244.955 223.548 244.598 223.595 244.24 223.59C242.09 223.59 238.46 222.34 234.77 220.79C228.77 218.26 222.6 214.92 222.5 214.86C221.943 214.542 221.471 214.096 221.123 213.558C220.775 213.021 220.561 212.407 220.5 211.77C215.92 209.68 215.42 203.14 215.38 202.02C214.513 201.298 213.828 200.384 213.38 199.35C212.675 196.893 212.183 194.381 211.91 191.84C211.65 190.05 211.39 188.2 211.05 186.61C210.17 182.43 213.34 179.28 213.48 179.15C213.225 178.7 213.02 178.224 212.87 177.73C212.543 176.71 212.5 175.62 212.745 174.577C212.99 173.534 213.513 172.578 214.26 171.81C213.943 170.709 213.916 169.546 214.181 168.432C214.445 167.318 214.992 166.291 215.77 165.45C215.98 163.93 217.83 151.63 222.77 148.61C222.69 147.95 222.77 146.36 225.03 144.61C225.829 144.001 226.76 143.587 227.748 143.402C228.736 143.216 229.753 143.263 230.72 143.54C231.248 141.961 232.309 140.614 233.72 139.73C235.47 138.92 237.67 138.38 243.55 137.3C244.127 137.157 244.73 137.145 245.313 137.264C245.896 137.383 246.445 137.631 246.92 137.99L247.11 138.16C249.11 140.1 248.63 144.34 248.55 144.92C248.66 145.67 249.62 152.68 247.75 156.32C249.012 160.141 248.934 164.278 247.53 168.05C247.68 168.98 248.64 175.19 247.53 179.46C247.78 181.739 247.78 184.04 247.53 186.32C248.178 186.944 248.567 187.791 248.62 188.69C248.62 189.5 248.74 190.83 248.86 192.23C249.24 196.33 249.44 199.35 248.76 200.41C248.97 201.23 249.76 204.57 249.2 206.63C249.04 207.589 249.064 208.569 249.27 209.52C249.39 211.2 249.63 213.1 248.55 214.59Z" fill="url(#paint13_linear_194_27)"/>
<path opacity="0.2" d="M248.55 214.59C250.05 219.49 249.04 222.22 245.3 223.45C244.955 223.548 244.598 223.595 244.24 223.59C242.09 223.59 238.46 222.34 234.77 220.79C236.307 221.16 237.922 221.042 239.39 220.45C243.62 218.02 240.69 215.74 240.69 215.74C246.22 216.29 245.05 209.74 245.49 206.68C245.93 203.62 242.26 200.83 242.26 200.83C245.12 201.27 244.45 194.83 245.69 192.44C246.93 190.05 244.78 184.79 244.78 184.79C244.32 180.61 242.63 179.28 244.78 176.44C246.93 173.6 244.78 166.65 244.78 166.65C244.78 166.65 246.26 163.55 245.69 161.07C245.12 158.59 245.69 153.73 245.69 153.73C243.69 151.15 245.69 142.66 245.69 142.66C245.7 141.029 246.112 139.425 246.89 137.99L247.08 138.16C249.08 140.1 248.6 144.34 248.52 144.92C248.63 145.67 249.59 152.68 247.72 156.32C248.982 160.142 248.904 164.279 247.5 168.05C247.65 168.98 248.61 175.19 247.5 179.46C247.75 181.74 247.75 184.04 247.5 186.32C248.148 186.945 248.537 187.791 248.59 188.69C248.59 189.5 248.71 190.83 248.83 192.23C249.21 196.33 249.41 199.35 248.73 200.41C248.94 201.23 249.73 204.57 249.17 206.63C249.01 207.589 249.034 208.57 249.24 209.52C249.39 211.2 249.63 213.1 248.55 214.59Z" fill="black"/>
<path d="M260.769 147.34C260.769 147.34 259.769 153.01 262.769 155.34C262.769 155.34 262.159 162.34 263.979 165.55C263.979 165.55 260.979 172.01 263.979 176.05C263.979 176.05 260.349 185.73 263.979 188.15C267.609 190.57 277.289 183.92 281.129 183.15C284.969 182.38 289.599 176.29 285.339 171.94" stroke="#FFF4D1" stroke-width="3" stroke-linecap="round" stroke-linejoin="round"/>
<path d="M273.84 167C273.84 167 273.84 165 273.84 162.15C273.84 159.3 271.66 155.37 271.66 155.37C272.66 152.83 268.84 147.37 268.84 147.37C270.45 144.88 267.84 140.9 266.15 140.1C264.46 139.3 262.15 138.76 256.41 137.71C250.67 136.66 251.86 144.95 251.86 144.95C251.86 144.95 250.68 152.68 252.7 156.31C251.408 160.125 251.478 164.271 252.9 168.04C252.9 168.04 251.69 174.96 252.9 179.46C252.9 179.46 252.46 184.52 252.98 186.46" stroke="#FFF4D1" stroke-width="3" stroke-linecap="round" stroke-linejoin="round"/>
<path d="M269.83 168C272.749 166.823 276.011 166.823 278.93 168" stroke="#FFF4D1" stroke-width="3" stroke-linecap="round" stroke-linejoin="round"/>
<path d="M256.73 184.05C256.73 184.05 251.86 185.99 251.86 188.69C251.86 191.39 250.61 199.18 251.75 200.33C252.89 201.48 262.96 200.87 269.83 196.23C269.83 196.23 278.52 197.04 280.34 194.82C282.16 192.6 285.23 192.03 285.61 190.6" stroke="#FFF4D1" stroke-width="3" stroke-linecap="round" stroke-linejoin="round"/>
<path d="M286.3 179.43C286.3 179.43 289.47 182.51 288.61 186.53C287.75 190.55 287.4 196.11 286.3 199.23C285.2 202.35 278.03 206.58 273.84 205.34C273.84 205.34 261.78 210.06 258.75 208.8" stroke="#FFF4D1" stroke-width="3" stroke-linecap="round" stroke-linejoin="round"/>
<path d="M251.75 200.33C251.75 200.33 250.68 204.33 251.27 206.52C251.86 208.71 250.02 212.24 251.86 214.52C253.7 216.8 268.64 215.59 270.86 213.17" stroke="#FFF4D1" stroke-width="3" stroke-linecap="round" stroke-linejoin="round"/>
<path d="M278.929 209C278.929 209 280.179 212.89 277.309 214.52C274.439 216.15 258.569 224.3 254.829 223.07C251.089 221.84 250.429 219.07 251.829 214.52" stroke="#FFF4D1" stroke-width="3" stroke-linecap="round" stroke-linejoin="round"/>
<path d="M284.27 201.85C284.27 201.85 284.11 209.43 279.2 211.51" stroke="#FFF4D1" stroke-width="3" stroke-linecap="round" stroke-linejoin="round"/>
<path d="M269.11 144C270.059 143.671 271.075 143.581 272.067 143.738C273.06 143.895 273.998 144.294 274.8 144.9C277.52 146.98 276.87 148.77 276.87 148.77C282.07 151.58 283.87 165.61 283.87 165.61C284.657 166.427 285.209 167.443 285.466 168.548C285.723 169.654 285.676 170.808 285.33 171.89C284.33 176.02 278.49 175.03 273.81 177.59C269.13 180.15 263.97 176.04 263.97 176.04" stroke="#FFF4D1" stroke-width="3" stroke-linecap="round" stroke-linejoin="round"/>
<path d="M263.999 188.16C263.33 189.286 262.423 190.252 261.342 190.992C260.261 191.731 259.031 192.225 257.739 192.44" stroke="#FFF4D1" stroke-width="3" stroke-linecap="round" stroke-linejoin="round"/>
<path d="M262.69 173.23C260.365 172.906 257.998 173.33 255.93 174.44" stroke="#FFF4D1" stroke-width="3" stroke-linecap="round" stroke-linejoin="round"/>
<path d="M252.899 168C252.899 168 257.139 164.75 258.749 165.35" stroke="#FFF4D1" stroke-width="3" stroke-linecap="round" stroke-linejoin="round"/>
<path d="M262.69 158.1C262.69 158.1 257.34 157.49 255.93 159.71" stroke="#FFF4D1" stroke-width="3" stroke-linecap="round" stroke-linejoin="round"/>
<path d="M252.7 156.28C252.7 156.28 253.3 153.46 255.93 153.06" stroke="#FFF4D1" stroke-width="3" stroke-linecap="round" stroke-linejoin="round"/>
<path d="M251.859 144.92C251.859 144.92 253.509 142.02 255.929 142.49" stroke="#FFF4D1" stroke-width="3" stroke-linecap="round" stroke-linejoin="round"/>
<path d="M273.84 205.34C273.84 205.34 274.29 202.2 272.47 200.83" stroke="#FFF4D1" stroke-width="3" stroke-linecap="round" stroke-linejoin="round"/>
<path d="M269.83 196.23C269.83 196.23 271.26 191.9 270.83 190.84" stroke="#FFF4D1" stroke-width="3" stroke-linecap="round" stroke-linejoin="round"/>
<path d="M260.609 200.39C261.154 200.63 261.63 201.003 261.993 201.475C262.357 201.946 262.596 202.502 262.689 203.09" stroke="#FFF4D1" stroke-width="3" stroke-linecap="round" stroke-linejoin="round"/>
<path d="M276.7 176.44C276.7 176.44 278.32 179.08 277.52 180.9" stroke="#FFF4D1" stroke-width="3" stroke-linecap="round" stroke-linejoin="round"/>
<path d="M283.899 165.63C283.899 165.63 280.739 163.14 278.899 162.74" stroke="#FFF4D1" stroke-width="3" stroke-linecap="round" stroke-linejoin="round"/>
<path d="M271.66 155.35C273.218 154.617 274.963 154.38 276.66 154.67" stroke="#FFF4D1" stroke-width="3" stroke-linecap="round" stroke-linejoin="round"/>
<path d="M239.23 147.34C239.23 147.34 240.23 153.01 237.23 155.34C237.23 155.34 237.84 162.34 236.02 165.55C236.02 165.55 239.02 172.01 236.02 176.05C236.02 176.05 239.65 185.73 236.02 188.15C232.39 190.57 222.71 183.92 218.87 183.15C215.03 182.38 210.4 176.29 214.66 171.94" stroke="#FFF4D1" stroke-width="3" stroke-linecap="round" stroke-linejoin="round"/>
<path d="M226.16 167C226.16 167 226.16 165 226.16 162.15C226.16 159.3 228.34 155.37 228.34 155.37C227.34 152.83 231.16 147.37 231.16 147.37C229.55 144.88 232.16 140.9 233.85 140.1C235.54 139.3 237.85 138.76 243.59 137.71C249.33 136.66 248.14 144.95 248.14 144.95C248.14 144.95 249.32 152.68 247.3 156.31C248.593 160.125 248.522 164.271 247.1 168.04C247.1 168.04 248.31 174.96 247.1 179.46C247.1 179.46 247.54 184.52 247.02 186.46" stroke="#FFF4D1" stroke-width="3" stroke-linecap="round" stroke-linejoin="round"/>
<path d="M230.169 168C227.25 166.823 223.989 166.823 221.069 168" stroke="#FFF4D1" stroke-width="3" stroke-linecap="round" stroke-linejoin="round"/>
<path d="M243.27 184.05C243.27 184.05 248.14 185.99 248.14 188.69C248.14 191.39 249.39 199.18 248.24 200.33C247.09 201.48 237.04 200.87 230.17 196.23C230.17 196.23 221.48 197.04 219.66 194.82C217.84 192.6 214.77 192.03 214.39 190.6" stroke="#FFF4D1" stroke-width="3" stroke-linecap="round" stroke-linejoin="round"/>
<path d="M213.7 179.43C213.7 179.43 210.53 182.51 211.39 186.53C212.25 190.55 212.6 196.11 213.7 199.23C214.8 202.35 221.97 206.58 226.16 205.34C226.16 205.34 238.22 210.06 241.25 208.8" stroke="#FFF4D1" stroke-width="3" stroke-linecap="round" stroke-linejoin="round"/>
<path d="M248.24 200.33C248.24 200.33 249.32 204.33 248.73 206.52C248.14 208.71 249.98 212.24 248.14 214.52C246.3 216.8 231.36 215.59 229.14 213.17" stroke="#FFF4D1" stroke-width="3" stroke-linecap="round" stroke-linejoin="round"/>
<path d="M221.07 209C221.07 209 219.82 212.89 222.69 214.52C225.56 216.15 241.43 224.3 245.17 223.07C248.91 221.84 249.57 219.07 248.17 214.52" stroke="#FFF4D1" stroke-width="3" stroke-linecap="round" stroke-linejoin="round"/>
<path d="M215.729 201.85C215.729 201.85 215.889 209.43 220.799 211.51" stroke="#FFF4D1" stroke-width="3" stroke-linecap="round" stroke-linejoin="round"/>
<path d="M230.889 144C229.94 143.671 228.924 143.581 227.932 143.738C226.939 143.895 226.001 144.294 225.199 144.9C222.479 146.98 223.129 148.77 223.129 148.77C217.929 151.58 216.129 165.61 216.129 165.61C215.342 166.427 214.791 167.443 214.534 168.548C214.276 169.654 214.323 170.808 214.669 171.89C215.669 176.02 221.509 175.03 226.189 177.59C230.869 180.15 236.029 176.04 236.029 176.04" stroke="#FFF4D1" stroke-width="3" stroke-linecap="round" stroke-linejoin="round"/>
<path d="M236 188.16C236.669 189.286 237.576 190.252 238.657 190.992C239.738 191.731 240.968 192.225 242.26 192.44" stroke="#FFF4D1" stroke-width="3" stroke-linecap="round" stroke-linejoin="round"/>
<path d="M237.31 173.23C239.634 172.906 242.001 173.33 244.07 174.44" stroke="#FFF4D1" stroke-width="3" stroke-linecap="round" stroke-linejoin="round"/>
<path d="M247.1 168C247.1 168 242.86 164.75 241.25 165.35" stroke="#FFF4D1" stroke-width="3" stroke-linecap="round" stroke-linejoin="round"/>
<path d="M237.31 158.1C237.31 158.1 242.66 157.49 244.07 159.71" stroke="#FFF4D1" stroke-width="3" stroke-linecap="round" stroke-linejoin="round"/>
<path d="M247.299 156.28C247.299 156.28 246.699 153.46 244.069 153.06" stroke="#FFF4D1" stroke-width="3" stroke-linecap="round" stroke-linejoin="round"/>
<path d="M248.139 144.92C248.139 144.92 246.489 142.02 244.069 142.49" stroke="#FFF4D1" stroke-width="3" stroke-linecap="round" stroke-linejoin="round"/>
<path d="M226.16 205.34C226.16 205.34 225.71 202.2 227.53 200.83" stroke="#FFF4D1" stroke-width="3" stroke-linecap="round" stroke-linejoin="round"/>
<path d="M230.169 196.23C230.169 196.23 228.739 191.9 229.169 190.84" stroke="#FFF4D1" stroke-width="3" stroke-linecap="round" stroke-linejoin="round"/>
<path d="M239.39 200.39C238.845 200.63 238.369 201.003 238.005 201.475C237.642 201.946 237.403 202.502 237.31 203.09" stroke="#FFF4D1" stroke-width="3" stroke-linecap="round" stroke-linejoin="round"/>
<path d="M223.3 176.44C223.3 176.44 221.68 179.08 222.48 180.9" stroke="#FFF4D1" stroke-width="3" stroke-linecap="round" stroke-linejoin="round"/>
<path d="M216.1 165.63C216.1 165.63 219.26 163.14 221.1 162.74" stroke="#FFF4D1" stroke-width="3" stroke-linecap="round" stroke-linejoin="round"/>
<path d="M228.34 155.35C226.782 154.617 225.037 154.38 223.34 154.67" stroke="#FFF4D1" stroke-width="3" stroke-linecap="round" stroke-linejoin="round"/>
<defs>
<linearGradient id="paint0_linear_194_27" x1="248.589" y1="29.1152" x2="248.589" y2="472.102" gradientUnits="userSpaceOnUse">
<stop stop-color="#F7E8B8"/>
<stop offset="1" stop-color="#FBE59F"/>
</linearGradient>
<linearGradient id="paint1_linear_194_27" x1="260.15" y1="44.8223" x2="260.15" y2="467.737" gradientUnits="userSpaceOnUse">
<stop stop-color="#E9D288"/>
<stop offset="1" stop-color="#D5AB58"/>
</linearGradient>
<linearGradient id="paint2_linear_194_27" x1="245.88" y1="381.37" x2="245.88" y2="465.785" gradientUnits="userSpaceOnUse">
<stop stop-color="#E9D288"/>
<stop offset="1" stop-color="#DAAF5A"/>
</linearGradient>
<linearGradient id="paint3_linear_194_27" x1="190.871" y1="332.792" x2="190.871" y2="378.568" gradientUnits="userSpaceOnUse">
<stop stop-color="#E9D288"/>
<stop offset="1" stop-color="#DAAF5A"/>
</linearGradient>
<linearGradient id="paint4_linear_194_27" x1="309.182" y1="332.752" x2="309.182" y2="378.567" gradientUnits="userSpaceOnUse">
<stop stop-color="#E9D288"/>
<stop offset="1" stop-color="#DAAF5A"/>
</linearGradient>
<linearGradient id="paint5_linear_194_27" x1="249.36" y1="361.551" x2="249.36" y2="383.371" gradientUnits="userSpaceOnUse">
<stop stop-color="#E9D288"/>
<stop offset="1" stop-color="#DAAF5A"/>
</linearGradient>
<linearGradient id="paint6_linear_194_27" x1="249.502" y1="385.761" x2="249.502" y2="390.801" gradientUnits="userSpaceOnUse">
<stop stop-color="#E9D288"/>
<stop offset="1" stop-color="#DAAF5A"/>
</linearGradient>
<linearGradient id="paint7_linear_194_27" x1="250" y1="394.611" x2="250" y2="400.879" gradientUnits="userSpaceOnUse">
<stop stop-color="#E9D288"/>
<stop offset="1" stop-color="#DAAF5A"/>
</linearGradient>
<linearGradient id="paint8_linear_194_27" x1="264.779" y1="325.765" x2="264.779" y2="354.561" gradientUnits="userSpaceOnUse">
<stop stop-color="#E9D288"/>
<stop offset="1" stop-color="#DAAF5A"/>
</linearGradient>
<linearGradient id="paint9_linear_194_27" x1="234.564" y1="325.659" x2="234.564" y2="337.926" gradientUnits="userSpaceOnUse">
<stop stop-color="#E9D288"/>
<stop offset="1" stop-color="#DAAF5A"/>
</linearGradient>
<linearGradient id="paint10_linear_194_27" x1="295.891" y1="288.461" x2="295.891" y2="405.311" gradientUnits="userSpaceOnUse">
<stop stop-color="#E9D288"/>
<stop offset="1" stop-color="#DAAF5A"/>
</linearGradient>
<linearGradient id="paint11_linear_194_27" x1="204.118" y1="288.461" x2="204.118" y2="405.311" gradientUnits="userSpaceOnUse">
<stop stop-color="#E9D288"/>
<stop offset="1" stop-color="#DAAF5A"/>
</linearGradient>
<linearGradient id="paint12_linear_194_27" x1="269.921" y1="137.174" x2="269.921" y2="223.59" gradientUnits="userSpaceOnUse">
<stop stop-color="#E9D288"/>
<stop offset="1" stop-color="#DAAF5A"/>
</linearGradient>
<linearGradient id="paint13_linear_194_27" x1="230.146" y1="137.183" x2="230.146" y2="223.59" gradientUnits="userSpaceOnUse">
<stop stop-color="#E9D288"/>
<stop offset="1" stop-color="#DAAF5A"/>
</linearGradient>
</defs>
</svg>
